<mxfile host="app.diagrams.net" modified="2023-07-28T07:58:42.340Z" agent="Mozilla/5.0 (Macintosh; Intel Mac OS X 10_15_7) AppleWebKit/537.36 (KHTML, like Gecko) Chrome/114.0.0.0 Safari/537.36" etag="7blvvRv4xLpPz0174gW8" version="21.6.5" type="github">
  <diagram name="第 1 页" id="UWZDFTL9o2CJtpgyM2nF">
    <mxGraphModel dx="1590" dy="473" grid="1" gridSize="10" guides="1" tooltips="1" connect="1" arrows="1" fold="1" page="1" pageScale="1" pageWidth="827" pageHeight="1169" math="0" shadow="0">
      <root>
        <mxCell id="0" />
        <mxCell id="1" parent="0" />
        <mxCell id="BrJIG2N0BZn2m2lbS2RZ-1" value="" style="rounded=1;whiteSpace=wrap;html=1;" vertex="1" parent="1">
          <mxGeometry x="-300" y="280" width="430" height="600" as="geometry" />
        </mxCell>
        <mxCell id="BrJIG2N0BZn2m2lbS2RZ-2" value="II.RPA.Plugin.GUI.Plugins.GetElementSelectorAll" style="text;html=1;strokeColor=none;fillColor=none;align=left;verticalAlign=middle;whiteSpace=wrap;rounded=0;" vertex="1" parent="1">
          <mxGeometry x="-300" y="250" width="300" height="30" as="geometry" />
        </mxCell>
        <mxCell id="BrJIG2N0BZn2m2lbS2RZ-10" value="" style="group" vertex="1" connectable="0" parent="1">
          <mxGeometry x="-330" y="1080" width="650" height="690" as="geometry" />
        </mxCell>
        <mxCell id="BrJIG2N0BZn2m2lbS2RZ-8" value="" style="rounded=0;whiteSpace=wrap;html=1;" vertex="1" parent="BrJIG2N0BZn2m2lbS2RZ-10">
          <mxGeometry y="30" width="650" height="660" as="geometry" />
        </mxCell>
        <mxCell id="BrJIG2N0BZn2m2lbS2RZ-9" value="GuiElement.FromSelectorAll()" style="text;html=1;strokeColor=none;fillColor=none;align=left;verticalAlign=middle;whiteSpace=wrap;rounded=0;" vertex="1" parent="BrJIG2N0BZn2m2lbS2RZ-10">
          <mxGeometry width="300" height="30" as="geometry" />
        </mxCell>
        <mxCell id="BrJIG2N0BZn2m2lbS2RZ-11" value="" style="group" vertex="1" connectable="0" parent="1">
          <mxGeometry x="880" y="1090" width="650" height="690" as="geometry" />
        </mxCell>
        <mxCell id="BrJIG2N0BZn2m2lbS2RZ-12" value="" style="rounded=0;whiteSpace=wrap;html=1;" vertex="1" parent="BrJIG2N0BZn2m2lbS2RZ-11">
          <mxGeometry y="30" width="650" height="660" as="geometry" />
        </mxCell>
        <mxCell id="BrJIG2N0BZn2m2lbS2RZ-13" value="GuiElement.OriginalFromSelectorAll()" style="text;html=1;strokeColor=none;fillColor=none;align=left;verticalAlign=middle;whiteSpace=wrap;rounded=0;" vertex="1" parent="BrJIG2N0BZn2m2lbS2RZ-11">
          <mxGeometry width="300" height="30" as="geometry" />
        </mxCell>
        <mxCell id="BrJIG2N0BZn2m2lbS2RZ-14" value="循环guiOperator（元素类型对应的方法类）" style="rounded=0;whiteSpace=wrap;html=1;" vertex="1" parent="BrJIG2N0BZn2m2lbS2RZ-11">
          <mxGeometry x="140" y="160" width="290" height="60" as="geometry" />
        </mxCell>
        <mxCell id="BrJIG2N0BZn2m2lbS2RZ-15" value="判断元素类型是否支持" style="rounded=0;whiteSpace=wrap;html=1;" vertex="1" parent="1">
          <mxGeometry x="400" y="1150" width="290" height="60" as="geometry" />
        </mxCell>
        <mxCell id="BrJIG2N0BZn2m2lbS2RZ-16" value="" style="group" vertex="1" connectable="0" parent="1">
          <mxGeometry x="1810" y="930" width="650" height="690" as="geometry" />
        </mxCell>
        <mxCell id="BrJIG2N0BZn2m2lbS2RZ-17" value="" style="rounded=0;whiteSpace=wrap;html=1;" vertex="1" parent="BrJIG2N0BZn2m2lbS2RZ-16">
          <mxGeometry y="30" width="650" height="660" as="geometry" />
        </mxCell>
        <mxCell id="BrJIG2N0BZn2m2lbS2RZ-18" value="GuiElement.OriginalFromSelectorAll()" style="text;html=1;strokeColor=none;fillColor=none;align=left;verticalAlign=middle;whiteSpace=wrap;rounded=0;" vertex="1" parent="BrJIG2N0BZn2m2lbS2RZ-16">
          <mxGeometry width="300" height="30" as="geometry" />
        </mxCell>
        <mxCell id="BrJIG2N0BZn2m2lbS2RZ-19" value="循环guiOperator（元素类型对应的方法类）" style="rounded=0;whiteSpace=wrap;html=1;" vertex="1" parent="BrJIG2N0BZn2m2lbS2RZ-16">
          <mxGeometry x="20" y="120" width="290" height="60" as="geometry" />
        </mxCell>
        <mxCell id="BrJIG2N0BZn2m2lbS2RZ-20" value="GuiManager初始化GuiOperators逻辑：" style="text;html=1;strokeColor=none;fillColor=none;align=left;verticalAlign=middle;whiteSpace=wrap;rounded=0;fontStyle=1" vertex="1" parent="1">
          <mxGeometry x="1810" y="820" width="270" height="30" as="geometry" />
        </mxCell>
        <mxCell id="BrJIG2N0BZn2m2lbS2RZ-21" value="" style="rounded=0;whiteSpace=wrap;html=1;" vertex="1" parent="1">
          <mxGeometry x="1790" y="1820" width="650" height="660" as="geometry" />
        </mxCell>
        <mxCell id="BrJIG2N0BZn2m2lbS2RZ-22" value="II.RPA.Plugin.Core.InstanceManager" style="text;html=1;strokeColor=none;fillColor=none;align=left;verticalAlign=middle;whiteSpace=wrap;rounded=0;" vertex="1" parent="1">
          <mxGeometry x="1790" y="1790" width="300" height="30" as="geometry" />
        </mxCell>
        <mxCell id="BrJIG2N0BZn2m2lbS2RZ-23" value="GuiOperatorBase.GetElementFromSelectorAll(GetElementFromSelectorParams)" style="rounded=0;whiteSpace=wrap;html=1;" vertex="1" parent="1">
          <mxGeometry x="1800" y="2860" width="470" height="60" as="geometry" />
        </mxCell>
        <mxCell id="BrJIG2N0BZn2m2lbS2RZ-24" value="BrowserTabPage.GetElementFromSelectorAll()" style="rounded=0;whiteSpace=wrap;html=1;" vertex="1" parent="1">
          <mxGeometry x="1890" y="3030" width="290" height="60" as="geometry" />
        </mxCell>
        <mxCell id="BrJIG2N0BZn2m2lbS2RZ-25" value="GetElementSelectorAll.Excute()" style="rounded=0;whiteSpace=wrap;html=1;" vertex="1" parent="1">
          <mxGeometry x="1140" y="2790" width="470" height="60" as="geometry" />
        </mxCell>
        <mxCell id="BrJIG2N0BZn2m2lbS2RZ-3" value="" style="rounded=0;whiteSpace=wrap;html=1;dashed=1;" vertex="1" parent="1">
          <mxGeometry x="-270" y="350" width="370" height="410" as="geometry" />
        </mxCell>
        <mxCell id="BrJIG2N0BZn2m2lbS2RZ-5" value="Excute()" style="text;html=1;strokeColor=none;fillColor=none;align=left;verticalAlign=middle;whiteSpace=wrap;rounded=0;" vertex="1" parent="1">
          <mxGeometry x="-270" y="320" width="120" height="30" as="geometry" />
        </mxCell>
        <mxCell id="BrJIG2N0BZn2m2lbS2RZ-4" value="判断元素类型是否支持" style="rounded=0;whiteSpace=wrap;html=1;" vertex="1" parent="1">
          <mxGeometry x="-230" y="380" width="290" height="60" as="geometry" />
        </mxCell>
        <mxCell id="BrJIG2N0BZn2m2lbS2RZ-7" value="判断元素类型是否支持" style="rounded=0;whiteSpace=wrap;html=1;" vertex="1" parent="1">
          <mxGeometry x="-230" y="460" width="290" height="60" as="geometry" />
        </mxCell>
        <mxCell id="BrJIG2N0BZn2m2lbS2RZ-26" value="获取elementIds" style="rounded=0;whiteSpace=wrap;html=1;" vertex="1" parent="1">
          <mxGeometry x="-230" y="540" width="290" height="60" as="geometry" />
        </mxCell>
        <mxCell id="BrJIG2N0BZn2m2lbS2RZ-30" style="edgeStyle=orthogonalEdgeStyle;rounded=0;orthogonalLoop=1;jettySize=auto;html=1;" edge="1" parent="1" source="BrJIG2N0BZn2m2lbS2RZ-27" target="BrJIG2N0BZn2m2lbS2RZ-28">
          <mxGeometry relative="1" as="geometry" />
        </mxCell>
        <mxCell id="BrJIG2N0BZn2m2lbS2RZ-27" value="GuiElement.FromSelectorAll" style="rounded=0;whiteSpace=wrap;html=1;" vertex="1" parent="1">
          <mxGeometry x="320" y="360" width="290" height="60" as="geometry" />
        </mxCell>
        <mxCell id="BrJIG2N0BZn2m2lbS2RZ-31" style="edgeStyle=orthogonalEdgeStyle;rounded=0;orthogonalLoop=1;jettySize=auto;html=1;" edge="1" parent="1" source="BrJIG2N0BZn2m2lbS2RZ-28" target="BrJIG2N0BZn2m2lbS2RZ-29">
          <mxGeometry relative="1" as="geometry" />
        </mxCell>
        <mxCell id="BrJIG2N0BZn2m2lbS2RZ-28" value="GuiElement.OriginalFromSelectorAll" style="rounded=0;whiteSpace=wrap;html=1;" vertex="1" parent="1">
          <mxGeometry x="320" y="585" width="290" height="60" as="geometry" />
        </mxCell>
        <mxCell id="BrJIG2N0BZn2m2lbS2RZ-29" value="guiOperator.GetElementFromSelectorAll(param)" style="rounded=0;whiteSpace=wrap;html=1;" vertex="1" parent="1">
          <mxGeometry x="320" y="760" width="290" height="60" as="geometry" />
        </mxCell>
        <mxCell id="BrJIG2N0BZn2m2lbS2RZ-32" value="GuiOperatorBase.GetElementFromSelectorAll(&lt;br&gt;GetElementFromSelectorParams args)" style="rounded=0;whiteSpace=wrap;html=1;" vertex="1" parent="1">
          <mxGeometry x="320" y="960" width="290" height="60" as="geometry" />
        </mxCell>
      </root>
    </mxGraphModel>
  </diagram>
</mxfile>
